<mxfile host="app.diagrams.net" modified="2023-05-14T19:09:11.873Z" agent="Mozilla/5.0 (Windows NT 10.0; Win64; x64) AppleWebKit/537.36 (KHTML, like Gecko) Chrome/113.0.0.0 Safari/537.36" etag="BTmv4ZYp8UVhTLWNGdPz" version="21.3.0" type="device">
  <diagram name="Page-1" id="mVWfAIDRVsSP9inFPczl">
    <mxGraphModel dx="1323" dy="1332" grid="1" gridSize="10" guides="1" tooltips="1" connect="1" arrows="1" fold="1" page="1" pageScale="1" pageWidth="850" pageHeight="1100" math="0" shadow="0">
      <root>
        <mxCell id="0" />
        <mxCell id="1" parent="0" />
        <mxCell id="jz275YC8xQPVCIXKyLV8-145" value="" style="rounded=0;whiteSpace=wrap;html=1;" vertex="1" parent="1">
          <mxGeometry x="180" y="10" width="570" height="1080" as="geometry" />
        </mxCell>
        <mxCell id="jz275YC8xQPVCIXKyLV8-134" value="&lt;p style=&quot;line-height: 120%;&quot;&gt;&lt;/p&gt;&lt;h3 style=&quot;&quot;&gt;&lt;font style=&quot;font-size: 14px;&quot; face=&quot;Verdana&quot;&gt;ChallengeB3-Angular&lt;/font&gt;&lt;/h3&gt;&lt;div&gt;&lt;font style=&quot;font-size: 14px;&quot; face=&quot;Verdana&quot;&gt;&lt;br&gt;&lt;/font&gt;&lt;/div&gt;&lt;div&gt;&lt;font style=&quot;font-size: 14px;&quot; face=&quot;Verdana&quot;&gt;&lt;br&gt;&lt;/font&gt;&lt;/div&gt;&lt;div&gt;&lt;font style=&quot;font-size: 14px;&quot; face=&quot;Verdana&quot;&gt;&lt;br&gt;&lt;/font&gt;&lt;/div&gt;&lt;div&gt;&lt;br&gt;&lt;/div&gt;&lt;p&gt;&lt;/p&gt;" style="rounded=0;whiteSpace=wrap;html=1;fillColor=#dae8fc;strokeColor=#6c8ebf;movable=1;resizable=1;rotatable=1;deletable=1;editable=1;locked=0;connectable=1;align=center;gradientColor=#312C5E;" vertex="1" parent="1">
          <mxGeometry x="350" y="962" width="220" height="101" as="geometry" />
        </mxCell>
        <mxCell id="jz275YC8xQPVCIXKyLV8-2" value="&lt;p style=&quot;line-height: 120%;&quot;&gt;&lt;/p&gt;&lt;h3 style=&quot;&quot;&gt;&lt;font style=&quot;font-size: 14px;&quot; face=&quot;Verdana&quot;&gt;ChallengeB3.Api&lt;/font&gt;&lt;/h3&gt;&lt;div&gt;&lt;font style=&quot;font-size: 14px;&quot; face=&quot;Verdana&quot;&gt;&lt;br&gt;&lt;/font&gt;&lt;/div&gt;&lt;div&gt;&lt;font style=&quot;font-size: 14px;&quot; face=&quot;Verdana&quot;&gt;&lt;br&gt;&lt;/font&gt;&lt;/div&gt;&lt;div&gt;&lt;font style=&quot;font-size: 14px;&quot; face=&quot;Verdana&quot;&gt;&lt;br&gt;&lt;/font&gt;&lt;/div&gt;&lt;div&gt;&lt;font style=&quot;font-size: 14px;&quot; face=&quot;Verdana&quot;&gt;&lt;br&gt;&lt;/font&gt;&lt;/div&gt;&lt;div&gt;&lt;font style=&quot;font-size: 14px;&quot; face=&quot;Verdana&quot;&gt;&lt;br&gt;&lt;/font&gt;&lt;/div&gt;&lt;div&gt;&lt;font style=&quot;font-size: 14px;&quot; face=&quot;Verdana&quot;&gt;&lt;br&gt;&lt;/font&gt;&lt;/div&gt;&lt;div&gt;&lt;font style=&quot;font-size: 14px;&quot; face=&quot;Verdana&quot;&gt;&lt;br&gt;&lt;/font&gt;&lt;/div&gt;&lt;div&gt;&lt;br&gt;&lt;/div&gt;&lt;p&gt;&lt;/p&gt;" style="rounded=0;whiteSpace=wrap;html=1;fillColor=#dae8fc;strokeColor=#6c8ebf;movable=1;resizable=1;rotatable=1;deletable=1;editable=1;locked=0;connectable=1;align=center;gradientColor=#312C5E;" vertex="1" parent="1">
          <mxGeometry x="350" y="741" width="220" height="170" as="geometry" />
        </mxCell>
        <mxCell id="jz275YC8xQPVCIXKyLV8-4" value="HUB SginalR" style="rounded=1;whiteSpace=wrap;html=1;fillColor=#f5f5f5;strokeColor=#666666;movable=1;resizable=1;rotatable=1;deletable=1;editable=1;locked=0;connectable=1;gradientColor=#b3b3b3;" vertex="1" parent="1">
          <mxGeometry x="467" y="859" width="80" height="35" as="geometry" />
        </mxCell>
        <mxCell id="jz275YC8xQPVCIXKyLV8-5" value="API Controller" style="rounded=1;whiteSpace=wrap;html=1;fillColor=#E6FFCC;strokeColor=#d6b656;gradientColor=#336600;" vertex="1" parent="1">
          <mxGeometry x="367" y="859" width="80" height="35" as="geometry" />
        </mxCell>
        <mxCell id="jz275YC8xQPVCIXKyLV8-9" value="RabbitMQ-MessageBroker&lt;br&gt;&lt;br&gt;&lt;br&gt;&lt;br&gt;&lt;br&gt;&lt;br&gt;&lt;br&gt;" style="strokeWidth=2;html=1;shape=mxgraph.flowchart.direct_data;whiteSpace=wrap;fillColor=#fad7ac;fontColor=#ffffff;strokeColor=#001DBC;gradientColor=#b81414;" vertex="1" parent="1">
          <mxGeometry x="340" y="561" width="250" height="121" as="geometry" />
        </mxCell>
        <mxCell id="jz275YC8xQPVCIXKyLV8-10" value="Worker&lt;br&gt;Queue&lt;br&gt;Producer" style="rounded=1;whiteSpace=wrap;html=1;fillColor=#1DC8E2;fontColor=#ffffff;strokeColor=#006EAF;gradientColor=#000066;" vertex="1" parent="1">
          <mxGeometry x="372" y="779" width="80" height="40" as="geometry" />
        </mxCell>
        <mxCell id="jz275YC8xQPVCIXKyLV8-13" value="Worker&lt;br&gt;Queue&lt;br&gt;Consumer" style="rounded=1;whiteSpace=wrap;html=1;fillColor=#1DC8E2;fontColor=#ffffff;strokeColor=#006EAF;gradientColor=#000066;" vertex="1" parent="1">
          <mxGeometry x="465" y="779" width="80" height="40" as="geometry" />
        </mxCell>
        <mxCell id="jz275YC8xQPVCIXKyLV8-15" style="edgeStyle=orthogonalEdgeStyle;rounded=0;orthogonalLoop=1;jettySize=auto;html=1;exitX=0.5;exitY=1;exitDx=0;exitDy=0;" edge="1" parent="1" source="jz275YC8xQPVCIXKyLV8-4" target="jz275YC8xQPVCIXKyLV8-4">
          <mxGeometry relative="1" as="geometry" />
        </mxCell>
        <mxCell id="jz275YC8xQPVCIXKyLV8-22" value="Client/&lt;br&gt;HTTP" style="rounded=1;whiteSpace=wrap;html=1;fillColor=#fad7ac;strokeColor=#b46504;gradientColor=#33FF99;" vertex="1" parent="1">
          <mxGeometry x="400" y="992" width="120" height="60" as="geometry" />
        </mxCell>
        <mxCell id="jz275YC8xQPVCIXKyLV8-26" value="" style="endArrow=classic;html=1;rounded=0;exitX=0.5;exitY=1;exitDx=0;exitDy=0;" edge="1" parent="1" source="jz275YC8xQPVCIXKyLV8-13" target="jz275YC8xQPVCIXKyLV8-4">
          <mxGeometry width="50" height="50" relative="1" as="geometry">
            <mxPoint x="650" y="560" as="sourcePoint" />
            <mxPoint x="620" y="410" as="targetPoint" />
          </mxGeometry>
        </mxCell>
        <mxCell id="jz275YC8xQPVCIXKyLV8-27" value="" style="endArrow=classic;html=1;rounded=0;exitX=0.5;exitY=0;exitDx=0;exitDy=0;entryX=0.5;entryY=1;entryDx=0;entryDy=0;" edge="1" parent="1" source="jz275YC8xQPVCIXKyLV8-5" target="jz275YC8xQPVCIXKyLV8-10">
          <mxGeometry width="50" height="50" relative="1" as="geometry">
            <mxPoint x="570" y="460" as="sourcePoint" />
            <mxPoint x="620" y="410" as="targetPoint" />
          </mxGeometry>
        </mxCell>
        <mxCell id="jz275YC8xQPVCIXKyLV8-135" value="protobufed" style="edgeLabel;html=1;align=center;verticalAlign=middle;resizable=0;points=[];" vertex="1" connectable="0" parent="jz275YC8xQPVCIXKyLV8-27">
          <mxGeometry x="-0.479" y="-1" relative="1" as="geometry">
            <mxPoint y="-9" as="offset" />
          </mxGeometry>
        </mxCell>
        <mxCell id="jz275YC8xQPVCIXKyLV8-30" value="&lt;p style=&quot;line-height: 120%;&quot;&gt;&lt;/p&gt;&lt;h3 style=&quot;&quot;&gt;&lt;font face=&quot;Verdana&quot;&gt;&lt;span style=&quot;font-size: 14px;&quot;&gt;ChallengeB3.Queue&lt;/span&gt;&lt;/font&gt;.Workers&lt;/h3&gt;&lt;div&gt;&lt;font face=&quot;Verdana&quot;&gt;&lt;span style=&quot;font-size: 14px;&quot;&gt;&lt;br&gt;&lt;/span&gt;&lt;/font&gt;&lt;/div&gt;&lt;div&gt;&lt;font face=&quot;Verdana&quot;&gt;&lt;span style=&quot;font-size: 14px;&quot;&gt;&lt;br&gt;&lt;/span&gt;&lt;/font&gt;&lt;/div&gt;&lt;div&gt;&lt;font face=&quot;Verdana&quot;&gt;&lt;span style=&quot;font-size: 14px;&quot;&gt;&lt;br&gt;&lt;/span&gt;&lt;/font&gt;&lt;/div&gt;&lt;div&gt;&lt;font face=&quot;Verdana&quot;&gt;&lt;span style=&quot;font-size: 14px;&quot;&gt;&lt;br&gt;&lt;/span&gt;&lt;/font&gt;&lt;/div&gt;&lt;div&gt;&lt;font face=&quot;Verdana&quot;&gt;&lt;span style=&quot;font-size: 14px;&quot;&gt;&lt;br&gt;&lt;/span&gt;&lt;/font&gt;&lt;/div&gt;&lt;p&gt;&lt;/p&gt;" style="rounded=0;whiteSpace=wrap;html=1;fillColor=#dae8fc;strokeColor=#6c8ebf;movable=1;resizable=1;rotatable=1;deletable=1;editable=1;locked=0;connectable=1;align=center;gradientColor=#312C5E;" vertex="1" parent="1">
          <mxGeometry x="350" y="387" width="220" height="140" as="geometry" />
        </mxCell>
        <mxCell id="jz275YC8xQPVCIXKyLV8-14" value="Queue&lt;br&gt;Producer" style="rounded=1;whiteSpace=wrap;html=1;fillColor=#1DC8E2;fontColor=#ffffff;strokeColor=#006EAF;gradientColor=#000066;" vertex="1" parent="1">
          <mxGeometry x="460" y="456" width="75" height="40" as="geometry" />
        </mxCell>
        <mxCell id="jz275YC8xQPVCIXKyLV8-6" value="Queue Consumer" style="rounded=1;whiteSpace=wrap;html=1;fillColor=#1DC8E2;fontColor=#ffffff;strokeColor=#006EAF;gradientColor=#000066;" vertex="1" parent="1">
          <mxGeometry x="372" y="456" width="75" height="40" as="geometry" />
        </mxCell>
        <mxCell id="jz275YC8xQPVCIXKyLV8-32" value="" style="endArrow=classic;html=1;rounded=0;edgeStyle=orthogonalEdgeStyle;curved=1;exitX=0;exitY=0.25;exitDx=0;exitDy=0;entryX=0;entryY=0.5;entryDx=0;entryDy=0;" edge="1" parent="1" source="jz275YC8xQPVCIXKyLV8-124" target="jz275YC8xQPVCIXKyLV8-6">
          <mxGeometry width="50" height="50" relative="1" as="geometry">
            <mxPoint x="390" y="699" as="sourcePoint" />
            <mxPoint x="310" y="599" as="targetPoint" />
            <Array as="points">
              <mxPoint x="300" y="600" />
              <mxPoint x="300" y="476" />
            </Array>
          </mxGeometry>
        </mxCell>
        <mxCell id="jz275YC8xQPVCIXKyLV8-51" value="Register &lt;br&gt;Protobufed" style="edgeLabel;html=1;align=center;verticalAlign=middle;resizable=0;points=[];" vertex="1" connectable="0" parent="jz275YC8xQPVCIXKyLV8-32">
          <mxGeometry x="-0.4196" y="-17" relative="1" as="geometry">
            <mxPoint x="-8" y="-18" as="offset" />
          </mxGeometry>
        </mxCell>
        <mxCell id="jz275YC8xQPVCIXKyLV8-34" value="" style="endArrow=classic;html=1;rounded=0;exitX=0;exitY=0.5;exitDx=0;exitDy=0;edgeStyle=orthogonalEdgeStyle;curved=1;entryX=0;entryY=0.5;entryDx=0;entryDy=0;" edge="1" parent="1" source="jz275YC8xQPVCIXKyLV8-22" target="jz275YC8xQPVCIXKyLV8-5">
          <mxGeometry width="50" height="50" relative="1" as="geometry">
            <mxPoint x="210" y="1000" as="sourcePoint" />
            <mxPoint x="340" y="880" as="targetPoint" />
            <Array as="points">
              <mxPoint x="300" y="1022" />
              <mxPoint x="300" y="880" />
              <mxPoint x="367" y="880" />
            </Array>
          </mxGeometry>
        </mxCell>
        <mxCell id="jz275YC8xQPVCIXKyLV8-43" value="REST&amp;nbsp;&lt;br&gt;Request" style="edgeLabel;html=1;align=center;verticalAlign=middle;resizable=0;points=[];" vertex="1" connectable="0" parent="jz275YC8xQPVCIXKyLV8-34">
          <mxGeometry x="0.0099" y="-1" relative="1" as="geometry">
            <mxPoint y="7" as="offset" />
          </mxGeometry>
        </mxCell>
        <mxCell id="jz275YC8xQPVCIXKyLV8-35" value="&lt;p style=&quot;line-height: 120%;&quot;&gt;&lt;/p&gt;&lt;h3 style=&quot;&quot;&gt;&lt;font face=&quot;Verdana&quot;&gt;&lt;span style=&quot;font-size: 14px;&quot;&gt;ChallengeB3.Domain&lt;/span&gt;&lt;/font&gt;&lt;/h3&gt;&lt;div&gt;&lt;font face=&quot;Verdana&quot;&gt;&lt;span style=&quot;font-size: 14px;&quot;&gt;&lt;br&gt;&lt;/span&gt;&lt;/font&gt;&lt;/div&gt;&lt;div&gt;&lt;font face=&quot;Verdana&quot;&gt;&lt;span style=&quot;font-size: 14px;&quot;&gt;&lt;br&gt;&lt;/span&gt;&lt;/font&gt;&lt;/div&gt;&lt;div&gt;&lt;br&gt;&lt;/div&gt;&lt;p&gt;&lt;/p&gt;" style="rounded=0;whiteSpace=wrap;html=1;fillColor=#dae8fc;strokeColor=#6c8ebf;movable=1;resizable=1;rotatable=1;deletable=1;editable=1;locked=0;connectable=1;align=center;gradientColor=#3a3566;" vertex="1" parent="1">
          <mxGeometry x="350" y="256" width="220" height="90" as="geometry" />
        </mxCell>
        <mxCell id="jz275YC8xQPVCIXKyLV8-37" value="Service" style="rounded=1;whiteSpace=wrap;html=1;fillColor=#1DC8E2;fontColor=#ffffff;strokeColor=#006EAF;gradientColor=#000066;" vertex="1" parent="1">
          <mxGeometry x="460" y="286" width="75" height="40" as="geometry" />
        </mxCell>
        <mxCell id="jz275YC8xQPVCIXKyLV8-38" value="Command Handler" style="rounded=1;whiteSpace=wrap;html=1;fillColor=#1DC8E2;fontColor=#ffffff;strokeColor=#006EAF;gradientColor=#000066;" vertex="1" parent="1">
          <mxGeometry x="372" y="286" width="75" height="40" as="geometry" />
        </mxCell>
        <mxCell id="jz275YC8xQPVCIXKyLV8-40" value="" style="endArrow=classic;html=1;rounded=0;exitX=1;exitY=0.5;exitDx=0;exitDy=0;edgeStyle=orthogonalEdgeStyle;curved=1;entryX=1;entryY=0.5;entryDx=0;entryDy=0;" edge="1" parent="1" source="jz275YC8xQPVCIXKyLV8-14" target="jz275YC8xQPVCIXKyLV8-126">
          <mxGeometry width="50" height="50" relative="1" as="geometry">
            <mxPoint x="600" y="590" as="sourcePoint" />
            <mxPoint x="650" y="540" as="targetPoint" />
            <Array as="points">
              <mxPoint x="535" y="480" />
              <mxPoint x="630" y="480" />
              <mxPoint x="630" y="640" />
              <mxPoint x="535" y="640" />
            </Array>
          </mxGeometry>
        </mxCell>
        <mxCell id="jz275YC8xQPVCIXKyLV8-50" value="List&amp;lt;Register&amp;gt;Protobufed" style="edgeLabel;html=1;align=center;verticalAlign=middle;resizable=0;points=[];" vertex="1" connectable="0" parent="jz275YC8xQPVCIXKyLV8-40">
          <mxGeometry x="0.0839" y="-7" relative="1" as="geometry">
            <mxPoint as="offset" />
          </mxGeometry>
        </mxCell>
        <mxCell id="jz275YC8xQPVCIXKyLV8-41" value="" style="endArrow=classic;html=1;rounded=0;exitX=0;exitY=0.25;exitDx=0;exitDy=0;edgeStyle=orthogonalEdgeStyle;curved=1;entryX=0;entryY=0.75;entryDx=0;entryDy=0;" edge="1" parent="1" source="jz275YC8xQPVCIXKyLV8-6" target="jz275YC8xQPVCIXKyLV8-38">
          <mxGeometry width="50" height="50" relative="1" as="geometry">
            <mxPoint x="240" y="560" as="sourcePoint" />
            <mxPoint x="290" y="510" as="targetPoint" />
            <Array as="points">
              <mxPoint x="372" y="460" />
              <mxPoint x="280" y="460" />
              <mxPoint x="280" y="310" />
              <mxPoint x="372" y="310" />
            </Array>
          </mxGeometry>
        </mxCell>
        <mxCell id="jz275YC8xQPVCIXKyLV8-142" value="Register Data" style="edgeLabel;html=1;align=center;verticalAlign=middle;resizable=0;points=[];" vertex="1" connectable="0" parent="jz275YC8xQPVCIXKyLV8-41">
          <mxGeometry x="-0.1117" y="-1" relative="1" as="geometry">
            <mxPoint y="-10" as="offset" />
          </mxGeometry>
        </mxCell>
        <mxCell id="jz275YC8xQPVCIXKyLV8-44" value="" style="endArrow=classic;html=1;rounded=0;exitX=1;exitY=0.5;exitDx=0;exitDy=0;edgeStyle=orthogonalEdgeStyle;curved=1;entryX=1.018;entryY=0.641;entryDx=0;entryDy=0;entryPerimeter=0;" edge="1" parent="1" source="jz275YC8xQPVCIXKyLV8-4" target="jz275YC8xQPVCIXKyLV8-22">
          <mxGeometry width="50" height="50" relative="1" as="geometry">
            <mxPoint x="600" y="970" as="sourcePoint" />
            <mxPoint x="650" y="920" as="targetPoint" />
            <Array as="points">
              <mxPoint x="620" y="876" />
              <mxPoint x="620" y="1030" />
            </Array>
          </mxGeometry>
        </mxCell>
        <mxCell id="jz275YC8xQPVCIXKyLV8-45" value="SignalR&lt;br&gt;Response" style="edgeLabel;html=1;align=center;verticalAlign=middle;resizable=0;points=[];" vertex="1" connectable="0" parent="jz275YC8xQPVCIXKyLV8-44">
          <mxGeometry x="0.068" y="-7" relative="1" as="geometry">
            <mxPoint as="offset" />
          </mxGeometry>
        </mxCell>
        <mxCell id="jz275YC8xQPVCIXKyLV8-46" value="" style="shape=cylinder3;whiteSpace=wrap;html=1;boundedLbl=1;backgroundOutline=1;size=15;fillColor=#fff2cc;gradientColor=#ecc246;strokeColor=#d6b656;" vertex="1" parent="1">
          <mxGeometry x="391" y="20" width="110" height="100" as="geometry" />
        </mxCell>
        <mxCell id="jz275YC8xQPVCIXKyLV8-49" value="" style="endArrow=classic;html=1;rounded=0;exitX=1;exitY=0.5;exitDx=0;exitDy=0;edgeStyle=orthogonalEdgeStyle;curved=1;entryX=1;entryY=0.25;entryDx=0;entryDy=0;" edge="1" parent="1" source="jz275YC8xQPVCIXKyLV8-37" target="jz275YC8xQPVCIXKyLV8-14">
          <mxGeometry width="50" height="50" relative="1" as="geometry">
            <mxPoint x="580" y="430" as="sourcePoint" />
            <mxPoint x="620" y="470" as="targetPoint" />
            <Array as="points">
              <mxPoint x="600" y="306" />
              <mxPoint x="600" y="466" />
            </Array>
          </mxGeometry>
        </mxCell>
        <mxCell id="jz275YC8xQPVCIXKyLV8-141" value="Registers Data" style="edgeLabel;html=1;align=center;verticalAlign=middle;resizable=0;points=[];" vertex="1" connectable="0" parent="jz275YC8xQPVCIXKyLV8-49">
          <mxGeometry x="0.0557" y="2" relative="1" as="geometry">
            <mxPoint x="18" as="offset" />
          </mxGeometry>
        </mxCell>
        <mxCell id="jz275YC8xQPVCIXKyLV8-56" value="" style="endArrow=classic;html=1;rounded=0;exitX=1;exitY=0.75;exitDx=0;exitDy=0;entryX=1;entryY=0.5;entryDx=0;entryDy=0;edgeStyle=orthogonalEdgeStyle;curved=1;" edge="1" parent="1" source="jz275YC8xQPVCIXKyLV8-126" target="jz275YC8xQPVCIXKyLV8-13">
          <mxGeometry width="50" height="50" relative="1" as="geometry">
            <mxPoint x="585" y="770" as="sourcePoint" />
            <mxPoint x="560" y="885" as="targetPoint" />
            <Array as="points">
              <mxPoint x="640" y="654" />
              <mxPoint x="640" y="799" />
            </Array>
          </mxGeometry>
        </mxCell>
        <mxCell id="jz275YC8xQPVCIXKyLV8-57" value="Register Protobufed" style="edgeLabel;html=1;align=center;verticalAlign=middle;resizable=0;points=[];" vertex="1" connectable="0" parent="jz275YC8xQPVCIXKyLV8-56">
          <mxGeometry x="0.0839" y="-7" relative="1" as="geometry">
            <mxPoint y="-13" as="offset" />
          </mxGeometry>
        </mxCell>
        <mxCell id="jz275YC8xQPVCIXKyLV8-120" value="tb_Register" style="rounded=1;whiteSpace=wrap;html=1;fillColor=none;" vertex="1" parent="1">
          <mxGeometry x="410" y="54" width="70" height="25" as="geometry" />
        </mxCell>
        <mxCell id="jz275YC8xQPVCIXKyLV8-121" value="StoreEvent" style="rounded=1;whiteSpace=wrap;html=1;fillColor=none;" vertex="1" parent="1">
          <mxGeometry x="410" y="89" width="70" height="25" as="geometry" />
        </mxCell>
        <mxCell id="jz275YC8xQPVCIXKyLV8-124" value="&lt;font style=&quot;font-size: 7px;&quot;&gt;QueueCommandRegister&lt;/font&gt;" style="rounded=1;arcSize=10;whiteSpace=wrap;html=1;align=center;fillColor=#fff2cc;gradientColor=#ffd966;strokeColor=#d6b656;" vertex="1" parent="1">
          <mxGeometry x="367" y="592" width="123" height="31" as="geometry" />
        </mxCell>
        <mxCell id="jz275YC8xQPVCIXKyLV8-126" value="&lt;font style=&quot;font-size: 7px;&quot;&gt;QueueEventRegister&lt;/font&gt;" style="rounded=1;arcSize=10;whiteSpace=wrap;html=1;align=center;fillColor=#fff2cc;gradientColor=#ffd966;strokeColor=#d6b656;" vertex="1" parent="1">
          <mxGeometry x="410" y="632" width="125" height="30" as="geometry" />
        </mxCell>
        <mxCell id="jz275YC8xQPVCIXKyLV8-127" value="" style="endArrow=classic;html=1;rounded=0;entryX=0;entryY=0.75;entryDx=0;entryDy=0;edgeStyle=orthogonalEdgeStyle;curved=1;exitX=0;exitY=0.5;exitDx=0;exitDy=0;" edge="1" parent="1" source="jz275YC8xQPVCIXKyLV8-10" target="jz275YC8xQPVCIXKyLV8-124">
          <mxGeometry width="50" height="50" relative="1" as="geometry">
            <mxPoint x="260" y="830" as="sourcePoint" />
            <mxPoint x="310" y="780" as="targetPoint" />
            <Array as="points">
              <mxPoint x="372" y="800" />
              <mxPoint x="280" y="800" />
              <mxPoint x="280" y="615" />
            </Array>
          </mxGeometry>
        </mxCell>
        <mxCell id="jz275YC8xQPVCIXKyLV8-128" value="Register Protobufed" style="edgeLabel;html=1;align=center;verticalAlign=middle;resizable=0;points=[];" vertex="1" connectable="0" parent="jz275YC8xQPVCIXKyLV8-127">
          <mxGeometry x="-0.0669" y="-1" relative="1" as="geometry">
            <mxPoint y="11" as="offset" />
          </mxGeometry>
        </mxCell>
        <mxCell id="jz275YC8xQPVCIXKyLV8-129" value="&lt;p style=&quot;line-height: 120%;&quot;&gt;&lt;/p&gt;&lt;h3 style=&quot;&quot;&gt;&lt;font face=&quot;Verdana&quot;&gt;&lt;span style=&quot;font-size: 14px;&quot;&gt;ChallengeB3.Data&lt;/span&gt;&lt;/font&gt;&lt;/h3&gt;&lt;div&gt;&lt;font face=&quot;Verdana&quot;&gt;&lt;span style=&quot;font-size: 14px;&quot;&gt;&lt;br&gt;&lt;/span&gt;&lt;/font&gt;&lt;/div&gt;&lt;div&gt;&lt;font face=&quot;Verdana&quot;&gt;&lt;span style=&quot;font-size: 14px;&quot;&gt;&lt;br&gt;&lt;/span&gt;&lt;/font&gt;&lt;/div&gt;&lt;div&gt;&lt;br&gt;&lt;/div&gt;&lt;p&gt;&lt;/p&gt;" style="rounded=0;whiteSpace=wrap;html=1;fillColor=#dae8fc;strokeColor=#6c8ebf;movable=1;resizable=1;rotatable=1;deletable=1;editable=1;locked=0;connectable=1;align=center;gradientColor=#3a3566;" vertex="1" parent="1">
          <mxGeometry x="350" y="135" width="220" height="90" as="geometry" />
        </mxCell>
        <mxCell id="jz275YC8xQPVCIXKyLV8-131" value="Register&lt;br&gt;Repository" style="rounded=1;whiteSpace=wrap;html=1;fillColor=#1DC8E2;fontColor=#ffffff;strokeColor=#006EAF;gradientColor=#000066;" vertex="1" parent="1">
          <mxGeometry x="400" y="167" width="120" height="40" as="geometry" />
        </mxCell>
        <mxCell id="jz275YC8xQPVCIXKyLV8-122" value="" style="endArrow=classic;html=1;rounded=0;edgeStyle=orthogonalEdgeStyle;curved=1;exitX=0.029;exitY=0.377;exitDx=0;exitDy=0;exitPerimeter=0;" edge="1" parent="1" source="jz275YC8xQPVCIXKyLV8-38" target="jz275YC8xQPVCIXKyLV8-131">
          <mxGeometry width="50" height="50" relative="1" as="geometry">
            <mxPoint x="270" y="400" as="sourcePoint" />
            <mxPoint x="320" y="350" as="targetPoint" />
            <Array as="points">
              <mxPoint x="374" y="290" />
              <mxPoint x="310" y="290" />
              <mxPoint x="310" y="187" />
            </Array>
          </mxGeometry>
        </mxCell>
        <mxCell id="jz275YC8xQPVCIXKyLV8-132" value="Register" style="edgeLabel;html=1;align=center;verticalAlign=middle;resizable=0;points=[];" vertex="1" connectable="0" parent="jz275YC8xQPVCIXKyLV8-122">
          <mxGeometry x="0.008" relative="1" as="geometry">
            <mxPoint as="offset" />
          </mxGeometry>
        </mxCell>
        <mxCell id="jz275YC8xQPVCIXKyLV8-137" value="" style="endArrow=classic;html=1;rounded=0;edgeStyle=orthogonalEdgeStyle;curved=1;entryX=1;entryY=0.5;entryDx=0;entryDy=0;exitX=1;exitY=0.25;exitDx=0;exitDy=0;" edge="1" parent="1" source="jz275YC8xQPVCIXKyLV8-131" target="jz275YC8xQPVCIXKyLV8-121">
          <mxGeometry width="50" height="50" relative="1" as="geometry">
            <mxPoint x="490" y="170" as="sourcePoint" />
            <mxPoint x="580" y="100" as="targetPoint" />
            <Array as="points">
              <mxPoint x="520" y="180" />
              <mxPoint x="610" y="180" />
              <mxPoint x="610" y="102" />
            </Array>
          </mxGeometry>
        </mxCell>
        <mxCell id="jz275YC8xQPVCIXKyLV8-138" value="" style="endArrow=classic;html=1;rounded=0;edgeStyle=orthogonalEdgeStyle;curved=1;exitX=0.985;exitY=0.583;exitDx=0;exitDy=0;exitPerimeter=0;entryX=1;entryY=0.5;entryDx=0;entryDy=0;" edge="1" parent="1" source="jz275YC8xQPVCIXKyLV8-131" target="jz275YC8xQPVCIXKyLV8-120">
          <mxGeometry width="50" height="50" relative="1" as="geometry">
            <mxPoint x="600" y="126.5" as="sourcePoint" />
            <mxPoint x="650" y="76.5" as="targetPoint" />
            <Array as="points">
              <mxPoint x="650" y="190" />
              <mxPoint x="650" y="67" />
            </Array>
          </mxGeometry>
        </mxCell>
        <mxCell id="jz275YC8xQPVCIXKyLV8-139" value="" style="endArrow=classic;html=1;rounded=0;exitX=1;exitY=1;exitDx=0;exitDy=0;edgeStyle=orthogonalEdgeStyle;curved=1;entryX=1;entryY=0.25;entryDx=0;entryDy=0;" edge="1" parent="1" source="jz275YC8xQPVCIXKyLV8-131" target="jz275YC8xQPVCIXKyLV8-37">
          <mxGeometry width="50" height="50" relative="1" as="geometry">
            <mxPoint x="590" y="260" as="sourcePoint" />
            <mxPoint x="640" y="210" as="targetPoint" />
            <Array as="points">
              <mxPoint x="620" y="207" />
              <mxPoint x="620" y="296" />
            </Array>
          </mxGeometry>
        </mxCell>
        <mxCell id="jz275YC8xQPVCIXKyLV8-140" value="Registers Data" style="edgeLabel;html=1;align=center;verticalAlign=middle;resizable=0;points=[];" vertex="1" connectable="0" parent="jz275YC8xQPVCIXKyLV8-139">
          <mxGeometry x="0.1131" y="1" relative="1" as="geometry">
            <mxPoint as="offset" />
          </mxGeometry>
        </mxCell>
        <mxCell id="jz275YC8xQPVCIXKyLV8-143" value="" style="endArrow=classic;html=1;rounded=0;exitX=0;exitY=0.5;exitDx=0;exitDy=0;edgeStyle=orthogonalEdgeStyle;curved=1;entryX=0.006;entryY=0.165;entryDx=0;entryDy=0;entryPerimeter=0;" edge="1" parent="1" source="jz275YC8xQPVCIXKyLV8-120" target="jz275YC8xQPVCIXKyLV8-131">
          <mxGeometry width="50" height="50" relative="1" as="geometry">
            <mxPoint x="310" y="114" as="sourcePoint" />
            <mxPoint x="360" y="64" as="targetPoint" />
            <Array as="points">
              <mxPoint x="300" y="67" />
              <mxPoint x="300" y="174" />
            </Array>
          </mxGeometry>
        </mxCell>
        <mxCell id="jz275YC8xQPVCIXKyLV8-144" value="Registers Data" style="edgeLabel;html=1;align=center;verticalAlign=middle;resizable=0;points=[];" vertex="1" connectable="0" parent="jz275YC8xQPVCIXKyLV8-143">
          <mxGeometry x="-0.0876" y="5" relative="1" as="geometry">
            <mxPoint as="offset" />
          </mxGeometry>
        </mxCell>
      </root>
    </mxGraphModel>
  </diagram>
</mxfile>
